<svg xmlns="http://www.w3.org/2000/svg" xmlns:xlink="http://www.w3.org/1999/xlink" width="1137" height="693.112"><style><![CDATA[.B{fill:#3f3d56}.C{fill:#f5e049}]]></style><path d="M137.398 693.112l-1.95-.44c21.756-96.75 76.43-184.61 153.95-247.392 119.148-96.344 279.544-124.464 424.36-74.397s253.594 171.248 287.795 320.608l-1.95.443C953.55 489.726 776.33 348.5 568.634 348.5c-204.974 0-386.334 144.93-431.236 344.61z" class="B"/><circle cx="417.133" cy="69.403" r="54.315" fill="#ff6584"/><use xlink:href="#B" class="B"/><use xlink:href="#C" class="C"/><use xlink:href="#B" x="129" class="B"/><use xlink:href="#C" x="129" class="C"/><path d="M337.7 181.988l-20.424-16.34L431.66 63.53h290.02v89.865l-187.9 126.628-196.07-98.034z" class="B"/><path fill="#ccc" d="M774.556 120.812V65.57H736.05v13.53l-14.37-15.57-93.95 102.12-36.763 24.51-57.002 416.463 85.966 85.965h199.784V169.733l-45.158-48.92z"/><path fill="#f2f2f2" d="M317.286 165.648H627.73v526.936H317.286z"/><path fill="#ccc" d="M437.787 563.914h57.187v128.67h-57.187z"/><g class="B"><path d="M376.515 600.677v-20.424h-24.508v20.424h24.508zm-2.042 16.34h-22.466v20.424h24.508v-20.424h-2.042zm18.382-36.763h24.5v20.424h-24.5zm0 36.763h24.5v20.424h-24.5zM544 600.677v-20.424h-24.508v20.424H544zm-2.04 16.34h-22.466v20.424h24.508v-20.424h-2.042zm18.38-36.763h24.5v20.424h-24.5zm0 36.763h24.5v20.424h-24.5zM715.552 192.2v-20.423h-24.5V192.2h24.5zm-2.052 16.34h-22.467v20.423h24.5V208.54H713.5zm18.4-36.764h24.5V192.2h-24.5zm0 36.764h24.5v20.424h-24.5zm-16.338 98.033V286.15h-24.5v20.424h24.5zm-2.052 16.34h-22.467v20.424h24.5v-20.424H713.5zm18.4-36.762h24.5v20.424h-24.5zm0 36.762h24.5v20.424h-24.5zm-16.338 98.035v-20.424h-24.5v20.424h24.5zm-2.052 16.34h-22.467V457.7h24.5v-20.424H713.5zm18.4-36.763h24.5v20.424h-24.5zm0 36.763h24.5V457.7h-24.5zm-16.338 98.034v-20.424h-24.5v20.424h24.5zm-2.052 16.34h-22.467v20.424h24.5V551.66H713.5zm18.4-36.763h24.5v20.424h-24.5zm0 36.763h24.5v20.424h-24.5zM352.007 192.2h236.917v49.017H352.007zm0 98.034h236.917v49.017H352.007zm0 98.036h236.917v49.017H352.007zm0 98.034h236.917v49.017H352.007zM0 690.53h1137v2H0z"/><path d="M190.405 459.615h5.875v232.053h-5.875z"/></g><use xlink:href="#D" class="C"/><use xlink:href="#D" opacity=".1"/><path d="M114.033 459.615h5.875v232.053h-5.875z" class="B"/><path d="M174.125 489.187C174.5 570.33 117.4 636.375 117.4 636.375s-57.695-65.515-58.07-146.658 56.715-147.187 56.715-147.187 57.695 65.515 58.07 146.658z" class="C"/><path d="M945.555 165.32l-83.944.897s44.774-59.307 83.776-37.334 83.807 36.562 83.807 36.562l-83.64-.125zm-771 114l-83.944.897s44.774-59.307 83.776-37.334 83.807 36.562 83.807 36.562l-83.64-.125zm168-238l-83.944.897S303.384-17.1 342.387 4.883s83.807 36.562 83.807 36.562l-83.64-.125z" fill="#f2f2f2"/><path d="M1035.033 459.615h5.875v232.053h-5.875z" class="B"/><use xlink:href="#D" x="844.628" class="C"/><path d="M824.667 547.63h59.29v-14.31h32.71v14.31H978v63.378h-61.333v79.733h-32.71v-79.733h-59.29L794 576.25l30.667-28.622z" class="B"/><defs ><path id="B" d="M183.13 680.773c1.694 6.262 7.496 10.14 7.496 10.14s3.056-6.274 1.362-12.536-7.496-10.14-7.496-10.14-3.056 6.274-1.362 12.536z"/><path id="C" d="M185.62 679.427c4.648 4.525 5.216 11.48 5.216 11.48s-6.97-.38-11.617-4.905-5.216-11.48-5.216-11.48 6.97.38 11.617 4.905z"/><path id="D" d="M250.497 489.187c.374 81.143-56.715 147.187-56.715 147.187s-57.695-65.515-58.07-146.658 56.715-147.187 56.715-147.187 57.695 65.515 58.07 146.658z"/></defs></svg>