<?xml version="1.0" encoding="iso-8859-1"?>
<!-- Generator: Adobe Illustrator 18.0.0, SVG Export Plug-In . SVG Version: 6.00 Build 0)  -->
<!DOCTYPE svg PUBLIC "-//W3C//DTD SVG 1.1//EN" "http://www.w3.org/Graphics/SVG/1.1/DTD/svg11.dtd">
<svg version="1.1" id="Capa_1" xmlns="http://www.w3.org/2000/svg" xmlns:xlink="http://www.w3.org/1999/xlink" x="0px" y="0px"
	 viewBox="0 0 492.536 492.536" style="enable-background:new 0 0 492.536 492.536;" xml:space="preserve" fill="#383A49">
<g>
	<path d="M218.422,23.931C228.293,14.049,239.381,6.094,251.17,0H111.484c-22.035,0-39.91,17.876-39.91,39.905V483.19
		c0,3.633,2.113,6.949,5.404,8.475c3.318,1.533,7.201,1.014,9.984-1.326l98.756-83.246c3.482-2.941,8.564-2.941,12.064,0
		l98.76,83.246c2.777,2.34,6.66,2.859,9.969,1.326c3.291-1.525,5.414-4.842,5.414-8.475V249.614
		c-33.865,0-67.736-12.893-93.504-38.668C166.851,159.386,166.851,75.489,218.422,23.931z"/>
	<path d="M389.057,40.297c-42.525-42.544-111.736-42.551-154.291,0c-42.525,42.525-42.525,111.755,0,154.283
		c42.555,42.525,111.766,42.54,154.291,0C431.598,152.036,431.598,82.815,389.057,40.297z M365.697,171.206
		c-29.664,29.652-77.895,29.652-107.543,0c-29.654-29.666-29.654-77.895,0-107.546c29.648-29.649,77.879-29.649,107.543,0
		C395.346,93.319,395.346,141.55,365.697,171.206z"/>
	<path d="M331.752,97.601V72.798c0-10.965-8.865-19.832-19.826-19.842c-10.945-0.015-19.857,8.892-19.826,19.827v24.81h-24.826
		c-10.957,0-19.84,8.889-19.824,19.824c0,5.498,2.223,10.458,5.799,14.044c3.596,3.569,8.561,5.815,14.025,5.798H292.1v24.81
		c-0.031,5.487,2.207,10.448,5.803,14.026c3.576,3.586,8.527,5.815,14.023,5.815c10.94,0.007,19.857-8.882,19.826-19.832v-24.802
		h24.793c10.977,0,19.855-8.892,19.842-19.834c0-10.976-8.865-19.85-19.842-19.842H331.752z"/>
</g>
<g>
</g>
<g>
</g>
<g>
</g>
<g>
</g>
<g>
</g>
<g>
</g>
<g>
</g>
<g>
</g>
<g>
</g>
<g>
</g>
<g>
</g>
<g>
</g>
<g>
</g>
<g>
</g>
<g>
</g>
</svg>
