<svg height="512pt" viewBox="0 0 512 512" width="512pt" xmlns="http://www.w3.org/2000/svg"><path d="m232 472v-323h200v138.496094c0 16.964844 10.679688 32.078125 26.570312 37.601562 8.5 2.953125 14 11.324219 13.378907 20.359375-.667969 9.699219-8.789063 17.820313-18.488281 18.488281-5.972657.417969-11.511719-1.464843-15.601563-5.28125-3.777344-3.527343-5.859375-8.378906-5.859375-13.664062h-40c0 16.492188 6.59375 31.730469 18.566406 42.90625 11.085938 10.347656 25.96875 16.09375 41.378906 16.09375 1.417969 0 2.84375-.050781 4.269532-.148438 29.671875-2.046874 53.59375-25.964843 55.640625-55.640624 1.855469-26.886719-14.519531-51.839844-39.855469-60.792969v-170.953125l-240-116.265625v-.199219h-117.226562l-114.773438 113.660156v35.339844h111v323h-111v40h512v-40zm-40-139.285156-32.714844-32.714844 32.714844-32.714844zm-41-144.429688 31.714844 31.714844-31.714844 31.714844zm8.285156-48.285156 32.714844-32.714844v65.429688zm-8.285156 208.285156 31.347656 31.347656-31.347656 29.78125zm213.839844-239.285156h-132.839844v-64.355469zm-172.839844-58.285156-41 41v-51.714844h41zm-130.449219 58.285156 49.449219-48.96875v48.96875zm89.449219 355.585938 41-38.949219v46.363281h-41zm0 0" fill="#383A49"/></svg>