<svg height="512pt" viewBox="0 0 512 512" width="512pt" xmlns="http://www.w3.org/2000/svg"><path d="m366.015625 134.984375v230.976563h-159.980469v145.984374h305.964844v-376.960937zm105.988281 336.964844h-225.976562v-65.992188h39.996094v35.996094h39.996093v-35.996094h39.996094v35.996094h39.996094v-35.996094h35.996093v-39.996093h-35.996093v-37.996094h35.996093v-39.996094h-35.996093v-39.996094h35.996093v-39.996094h-35.996093v-32.996093h65.992187zm-432.003906-125.488281c.269531-10.796876 9.132812-19.496094 19.992188-19.496094h80.046874v-246.972656h311.910157c11.027343 0 20 8.96875 20 19.996093h39.996093c0-33.078125-26.914062-59.992187-59.996093-59.992187h-311.910157v-39.996094h-80.046874c-33.078126 0-59.992188 26.914062-59.992188 59.992188v285.96875c0 .167968 0 .335937.00390625.5-.00390625.167968-.00390625.332031-.00390625.5h.0078125c.5351565 32.625 27.2382815 58.996093 59.9843755 58.996093h106.046874v-39.996093h-106.046874c-10.859376 0-19.722657-8.703126-19.992188-19.5zm-.003906-286.46875c0-11.027344 8.96875-19.996094 19.996094-19.996094h40.054687v246.972656h-40.054687c-7.007813 0-13.738282 1.207031-19.996094 3.425781zm0 0" fill="#383A49"/></svg>