<svg height="512pt" viewBox="0 0 512 512" width="512pt" xmlns="http://www.w3.org/2000/svg"><path d="m452 0h-392c-33.085938 0-60 26.914062-60 60v392c0 33.085938 26.914062 60 60 60h392c33.085938 0 60-26.914062 60-60v-392c0-33.085938-26.914062-60-60-60zm20 452c0 11.027344-8.972656 20-20 20h-392c-11.027344 0-20-8.972656-20-20v-392c0-11.027344 8.972656-20 20-20h392c11.027344 0 20 8.972656 20 20zm-146.09375-403.363281-221.898438 273.375h120.871094l-32.765625 142.511719 216.105469-254.523438h-123.476562zm-4.125 201.363281-53.894531 63.480469 7.234375-31.46875h-87.128906l54.101562-66.648438-8.835938 34.636719zm0 0" fill="#383A49"/></svg>