<svg height="512pt" viewBox="0 0 512 512.001" width="512pt" xmlns="http://www.w3.org/2000/svg"><path d="m139.957031 85.128906c11.042969 0 19.996094 8.949219 19.996094 19.992188 0 11.042968-8.953125 19.996094-19.996094 19.996094s-19.992187-8.953126-19.992187-19.996094c0-11.039063 8.949218-19.992188 19.992187-19.992188zm-59.980469 112.964844h39.988282v-39.988281h-39.988282zm79.976563 0h39.988281v-39.988281h-39.988281zm-79.976563 78.976562h39.988282v-39.988281h-39.988282zm79.976563 0h39.988281v-39.988281h-39.988281zm-79.976563 78.976563h39.988282v-39.988281h-39.988282zm79.976563 0h39.988281v-39.988281h-39.988281zm-79.976563 78.976563h39.988282v-39.988282h-39.988282zm79.976563 0h39.988281v-39.988282h-39.988281zm351.894531-278.207032v355.183594h-511.847656v-430.359375l139.957031-81.640625 139.960938 81.640625v47.703125l96.304687-54.367188zm-271.917968-52.207031-99.972657-58.3125-99.96875 58.3125v367.402344h199.941407zm231.929687 74.78125-96.308594-58.117187-95.632812 53.988281v296.75h191.941406zm-155.953125 97.679687h39.988281v-39.988281h-39.988281zm39.988281-94.972656c0 11.042969 8.949219 19.996094 19.992188 19.996094s19.996093-8.953125 19.996093-19.996094c0-11.042968-8.953124-19.992187-19.996093-19.992187s-19.992188 8.953125-19.992188 19.992187zm39.988281 94.972656h39.988282v-39.988281h-39.988282zm-79.976562 78.976563h39.988281v-39.988281h-39.988281zm79.976562 0h39.988282v-39.988281h-39.988282zm-79.976562 78.976563h39.988281v-39.988282h-39.988281zm79.976562 0h39.988282v-39.988282h-39.988282zm0 0" fill="#383A49"/></svg>