<svg height="512pt" viewBox="0 0 512 512" width="512pt" xmlns="http://www.w3.org/2000/svg"><path d="m452 0h-392c-33.085938 0-60 26.914062-60 60v392c0 33.085938 26.914062 60 60 60h392c33.085938 0 60-26.914062 60-60v-392c0-33.085938-26.914062-60-60-60zm20 60v57h-112v-77h92c11.027344 0 20 8.972656 20 20zm-191 174v-77h113v77zm-82 118v-78h121v78zm0-235v-77h121v77zm42 40v77h-121v-77zm-161 77h-40v-77h40zm79 40v78h-119v-78zm83 118v80h-121v-80zm40 0h112v80h-112zm78-40v-78h112v78zm74-118v-77h38v77zm-374-194h99v77h-119v-57c0-11.027344 8.972656-20 20-20zm-20 412v-60h41v80h-21c-11.027344 0-20-8.972656-20-20zm412 20h-18v-80h38v60c0 11.027344-8.972656 20-20 20zm0 0" fill="#383A49"/></svg>